<?xml version="1.0" standalone="no"?><!DOCTYPE svg PUBLIC "-//W3C//DTD SVG 1.1//EN" "http://www.w3.org/Graphics/SVG/1.1/DTD/svg11.dtd"><svg t="1622795836367" class="icon" viewBox="0 0 1024 1024" version="1.1" xmlns="http://www.w3.org/2000/svg" p-id="15524" xmlns:xlink="http://www.w3.org/1999/xlink" width="128" height="128"><defs><style type="text/css"></style></defs><path d="M512 1024C229.248 1024 0 794.752 0 512S229.248 0 512 0s512 229.248 512 512-229.248 512-512 512z m-148.309333-422.101333l-59.733334-59.733334a42.666667 42.666667 0 1 0-60.373333 60.330667L302.933333 661.845333l-76.970666 75.989334a42.368 42.368 0 0 0-0.213334 60.16l0.213334 0.170666a42.666667 42.666667 0 0 0 60.16 0.213334l77.141333-76.16 61.354667 61.312a42.666667 42.666667 0 1 0 60.330666-60.330667l-60.928-60.928 57.301334-56.576a213.333333 213.333333 0 1 0-60.885334-59.818667l-56.746666 56.021334zM597.418667 554.666667a128 128 0 1 1 0-256 128 128 0 0 1 0 256z" fill="#F07BE7" p-id="15525"></path></svg>