<?xml version="1.0" standalone="no"?><!DOCTYPE svg PUBLIC "-//W3C//DTD SVG 1.1//EN" "http://www.w3.org/Graphics/SVG/1.1/DTD/svg11.dtd"><svg t="1622795631543" class="icon" viewBox="0 0 1024 1024" version="1.1" xmlns="http://www.w3.org/2000/svg" p-id="2514" xmlns:xlink="http://www.w3.org/1999/xlink" width="128" height="128"><defs><style type="text/css"></style></defs><path d="M512 512m-512 0a512 512 0 1 0 1024 0 512 512 0 1 0-1024 0Z" fill="#2D7DD2" p-id="2515"></path><path d="M519.7 204.8h299.5v299.5h-99.8V371.2L581 509.5c24.3 36.8 38.5 80.5 38.5 127.9 0 128.7-104.3 233-233 233s-233-104.3-233-233 104.3-233 233-233c47.4 0 91.1 14.2 127.9 38.5l138.3-138.3h-133v-99.8zM386.6 504.3c-73.5 0-133.1 59.6-133.1 133.1S313 770.6 386.6 770.6 519.7 711 519.7 637.4s-59.6-133.1-133.1-133.1z" fill="#FFFFFF" p-id="2516"></path></svg>